<?xml version="1.0" encoding="UTF-8"?>
<svg id="Layer_1" data-name="Layer 1" xmlns="http://www.w3.org/2000/svg" viewBox="0 0 305.16 80.84">
  <defs>
    <style>
      .cls-1 {
        fill: #111325;
      }

      .cls-1, .cls-2 {
        stroke-width: 0px;
      }

      .cls-2 {
        fill: #fff;
      }
    </style>
  </defs>
  <path class="cls-2" d="M157.18,35.15v16.95c0,11.73-8.07,17.33-17.8,17.33v-5.22c6.63,0,12.57-3.38,12.57-11.98v-6.79c-2.28,4.38-7.1,7.51-12.51,7.51-9.85,0-17.79-8.01-17.79-17.8s7.94-17.7,17.79-17.7,17.73,7.94,17.73,17.7M151.95,35.15c0-6.91-5.6-12.51-12.51-12.51s-12.57,5.6-12.57,12.51,5.6,12.57,12.57,12.57,12.51-5.66,12.51-12.57"/>
  <path class="cls-2" d="M164.24,17.38h5v4.72c1.88-3.32,6.63-4.69,11.54-4.22v5.29c-5.79-.78-11.32,2.28-11.32,7.63v22.02h-5.22V17.38Z"/>
  <path class="cls-2" d="M181.69,35.02c0-9.73,7.91-17.64,17.7-17.64s17.64,7.91,17.64,17.64-7.91,17.7-17.64,17.7-17.7-7.97-17.7-17.7M211.81,35.02c0-6.88-5.57-12.45-12.45-12.45s-12.51,5.57-12.51,12.45,5.57,12.51,12.51,12.51c6.88.03,12.45-5.63,12.45-12.51"/>
  <path class="cls-2" d="M221.19,35.74v-18.33h5.22v18.29c0,7.16,4.28,11.32,11.01,11.32s10.95-4.04,10.95-11.32v-18.36h5.22v18.39c0,10.29-6.63,16.54-16.17,16.54s-16.23-6.26-16.23-16.54"/>
  <path class="cls-2" d="M264.38,45.34v18.48h-5.19v-28.74c0-9.76,8.01-17.67,17.76-17.67s17.64,7.91,17.64,17.67-7.94,17.76-17.67,17.76c-5.47-.03-10.2-3.13-12.54-7.51M264.38,35.09c0,6.88,5.66,12.54,12.54,12.54s12.48-5.66,12.48-12.54-5.6-12.48-12.48-12.48-12.54,5.57-12.54,12.48"/>
  <path class="cls-1" d="M62.35,52.6c-.78-.09-2.13-.25-3.5-.5-1.88-.34-3.94-.81-5.16-1.38l5.44-5.44c1.28.25,3.82.47,5.41.5h.63c3.06-.09,5.32-1.34,5.35-3.19,0-.56-.19-1.06-.62-1.53-.78-.88-2.28-1.63-4.35-2.19-.91-.25-1.94-.44-3.1-.62-.53-.06-1.03-.16-1.53-.25-2.06-.38-3.66-.88-5.19-1.34-3.75-1.16-6.51-4.07-6.29-9.16.22-5.88,5.85-10.13,14.2-10.13,5.66,0,10.41,1.75,12.98,4.94l-4.97,4.97c-.5-.41-1.09-.88-1.85-1.28-.72-.38-1.44-.69-2.06-.88h-.03c-.25-.09-.5-.16-.78-.22-.28-.06-.53-.09-.75-.16-.09,0-.19-.03-.28-.03s-.19-.03-.28-.03c-.72-.06-1.44-.09-2.13-.09-3.1,0-5.28,1.19-5.5,3-.16,1.19-.72,2.85,4.63,4.07,1.35.31,2.69.53,3.91.75,1.31.22,2.53.44,3.57.69.31.06.66.16,1,.25,1.5.38,3.19.84,4.66,1.88,1.69,1.19,3.03,3.1,3.28,6.32.5,7.88-8.16,11.95-16.67,11.07"/>
  <path class="cls-1" d="M51.85,47.09c-3.6-1.63-5.94-5.04-5.94-12.04,0-3.47-1-6.66-2.72-9.38-3.13-4.97-8.66-8.26-14.95-8.26-9.76,0-17.67,7.91-17.67,17.67,0,6.38,3.38,11.98,8.47,15.07,2.22,1.38,4.79,2.25,7.5,2.5.56.06,1.13.09,1.69.09,3.13,0,6.1-.81,8.63-2.25,1.59-.91,3.03-2.03,4.28-3.38,1.35,2.16,3.16,4,5.29,5.41h.03l5.38-5.44ZM35.3,42.59c-1.85,1.75-4.35,2.82-7.1,2.82-1.19,0-2.35-.22-3.41-.56-4.03-1.41-6.94-5.25-6.94-9.76.03-5.75,4.66-10.38,10.35-10.38s10.6,4.69,10.6,10.41c0,.28-.12,2.13-.12,2.66-.03,2.97.38,5.85,1.66,7.98-1.28-.78-3.75-2.25-5.04-3.16"/>
  <path class="cls-1" d="M118.05,52.76h-11.38l-10.6-14.1-3.5,3.53.09,10.57h-9.26v-28.05c0-3.19-1.35-4.91-2.53-6.63l6.66-6.66c3.13,3.5,5.13,8.29,5.13,13.35v5.25l12.67-12.63h12.04l-15.01,15.01,15.7,20.36Z"/>
  <polygon class="cls-1" points="17.07 64.26 20.64 64.26 20.64 64.73 17.6 64.73 17.6 66.67 20.42 66.67 20.42 67.14 17.6 67.14 17.6 69.3 17.1 69.3 17.1 64.26 17.07 64.26"/>
  <path class="cls-1" d="M23.79,64.95c.5-.5,1.09-.75,1.81-.75s1.31.25,1.81.72c.5.47.72,1.1.72,1.85s-.25,1.34-.72,1.85c-.47.5-1.09.75-1.81.75s-1.31-.25-1.81-.72c-.5-.5-.75-1.1-.75-1.85s.25-1.35.75-1.85M24.17,68.3c.41.41.88.59,1.44.59s1.06-.19,1.44-.59.56-.91.56-1.5-.19-1.1-.59-1.5c-.41-.41-.88-.59-1.41-.59-.56,0-1.03.19-1.44.59-.41.41-.59.91-.59,1.5s.22,1.09.59,1.5"/>
  <path class="cls-1" d="M30.83,69.3v-5.04h1.91c1.28,0,1.91.5,1.91,1.47,0,.38-.12.69-.38.94s-.56.41-.94.47l1.66,2.16h-.62l-1.56-2.06h-1.47v2.06h-.5ZM31.33,64.76v2.03h1.41c.41,0,.75-.09,1-.28.25-.19.38-.44.38-.75,0-.66-.47-1-1.41-1h-1.38Z"/>
  <polygon class="cls-1" points="41.06 64.26 45.15 64.26 45.15 64.73 43.37 64.73 43.37 69.27 42.84 69.27 42.84 64.73 41.06 64.73 41.06 64.26"/>
  <path class="cls-1" d="M47.59,69.3v-5.04h1.91c1.28,0,1.91.5,1.91,1.47,0,.38-.12.69-.38.94s-.56.41-.94.47l1.66,2.16h-.62l-1.56-2.06h-1.47v2.06h-.5ZM48.09,64.76v2.03h1.41c.41,0,.75-.09,1-.28.25-.19.38-.44.38-.75,0-.66-.47-1-1.41-1h-1.38Z"/>
  <path class="cls-1" d="M55.85,64.26h.41l2.19,5.04h-.53l-.63-1.38h-2.56l-.59,1.38h-.53l2.25-5.04ZM54.97,67.45h2.19l-1.09-2.53-1.1,2.53Z"/>
  <polygon class="cls-1" points="64.7 69.3 61.42 65.2 61.42 69.3 60.92 69.3 60.92 64.26 61.32 64.26 64.61 68.39 64.61 64.26 65.11 64.26 65.11 69.3 64.7 69.3"/>
  <path class="cls-1" d="M70.86,67.45c-.16-.12-.34-.25-.59-.31-.25-.06-.5-.12-.78-.22-.28-.06-.53-.16-.78-.25-.25-.09-.44-.22-.59-.41-.16-.19-.25-.44-.25-.72,0-.38.16-.69.5-.97.34-.25.78-.41,1.31-.41.81,0,1.41.22,1.78.69l-.31.31c-.38-.34-.88-.53-1.47-.53-.12,0-.28,0-.44.03-.16.03-.28.06-.41.12-.12.06-.25.16-.34.25-.09.09-.12.25-.12.41,0,.19.06.34.19.47.12.12.28.22.47.28.19.06.41.12.62.19.22.06.44.12.69.19.22.06.44.16.63.25.19.09.34.22.47.41.12.19.19.38.19.63,0,.41-.16.75-.5,1.03-.34.25-.78.41-1.28.41-.44,0-.84-.09-1.19-.28-.38-.19-.66-.41-.81-.69l.34-.34c.16.22.41.41.69.59.31.16.66.25,1.03.25.34,0,.62-.09.84-.25.25-.16.38-.38.38-.66-.03-.16-.09-.31-.25-.47"/>
  <polygon class="cls-1" points="74.36 64.26 77.9 64.26 77.9 64.73 74.86 64.73 74.86 66.67 77.68 66.67 77.68 67.14 74.86 67.14 74.86 69.3 74.36 69.3 74.36 64.26"/>
  <path class="cls-1" d="M81.06,64.95c.5-.5,1.1-.75,1.81-.75s1.31.25,1.81.72c.5.47.72,1.1.72,1.85s-.25,1.34-.72,1.85c-.47.5-1.09.75-1.81.75s-1.31-.25-1.81-.72c-.5-.5-.75-1.1-.75-1.85.03-.72.28-1.35.75-1.85M81.46,68.3c.41.41.88.59,1.44.59s1.06-.19,1.44-.59.56-.91.56-1.5-.19-1.1-.59-1.5c-.41-.41-.88-.59-1.41-.59-.56,0-1.03.19-1.44.59-.41.41-.59.91-.59,1.5s.19,1.09.59,1.5"/>
  <path class="cls-1" d="M88.09,69.3v-5.04h1.91c1.28,0,1.91.5,1.91,1.47,0,.38-.12.69-.38.94-.25.25-.56.41-.94.47l1.66,2.16h-.63l-1.56-2.06h-1.47v2.06h-.5ZM88.62,64.76v2.03h1.41c.41,0,.75-.09,1-.28.25-.19.38-.44.38-.75,0-.66-.47-1-1.41-1h-1.38Z"/>
  <polygon class="cls-1" points="94.82 64.26 95.32 64.26 97.32 66.92 99.23 64.26 99.7 64.26 99.7 69.3 99.19 69.3 99.19 65.14 97.35 67.67 97.22 67.67 95.35 65.14 95.35 69.3 94.85 69.3 94.85 64.26 94.82 64.26"/>
  <path class="cls-1" d="M104.35,64.26h.41l2.19,5.04h-.53l-.62-1.38h-2.56l-.59,1.38h-.53l2.25-5.04ZM103.45,67.45h2.19l-1.09-2.53-1.1,2.53Z"/>
  <polygon class="cls-1" points="108.17 64.26 112.27 64.26 112.27 64.73 110.48 64.73 110.48 69.27 109.98 69.27 109.98 64.73 108.2 64.73 108.2 64.26 108.17 64.26"/>
  <rect class="cls-1" x="114.8" y="64.26" width=".5" height="5.04"/>
  <path class="cls-1" d="M118.8,64.95c.5-.5,1.09-.75,1.81-.75s1.31.25,1.81.72c.5.47.72,1.1.72,1.85s-.25,1.34-.72,1.85c-.47.5-1.09.75-1.81.75s-1.31-.25-1.81-.72c-.5-.47-.75-1.1-.75-1.85.03-.72.25-1.35.75-1.85M119.18,68.3c.41.41.88.59,1.44.59s1.06-.19,1.44-.59.56-.91.56-1.5-.19-1.1-.59-1.5c-.41-.41-.88-.59-1.41-.59-.56,0-1.03.19-1.44.59-.41.41-.59.91-.59,1.5s.22,1.09.59,1.5"/>
  <polygon class="cls-1" points="129.62 69.3 126.34 65.2 126.34 69.3 125.84 69.3 125.84 64.26 126.25 64.26 129.53 68.39 129.53 64.26 130.03 64.26 130.03 69.3 129.62 69.3"/>
</svg>