<?xml version="1.0" encoding="utf-8"?>
<!-- Generator: Adobe Illustrator 28.3.0, SVG Export Plug-In . SVG Version: 6.00 Build 0)  -->
<svg version="1.1" id="Layer_1" xmlns="http://www.w3.org/2000/svg" xmlns:xlink="http://www.w3.org/1999/xlink" x="0px" y="0px"
	 viewBox="0 0 969.5 214.3" style="enable-background:new 0 0 969.5 214.3;" xml:space="preserve">
<style type="text/css">
	.st0{fill:#0C0F24;}
	.st1{fill:#43C0FF;}
</style>
<g>
	<path class="st0" d="M505.7,93.3v54.3c0,37.6-25.9,55.6-57.1,55.6v-16.7c21.3,0,40.3-10.9,40.3-38.5v-21.7c-7.3,14-22.8,24-40.1,24
		c-31.6,0-57.1-25.7-57.1-57.1s25.5-56.9,57.1-56.9C480.2,36.5,505.7,62,505.7,93.3 M489,93.3c0-22.2-18-40.1-40.1-40.1
		c-22.4,0-40.3,18-40.3,40.1s18,40.3,40.3,40.3C471,133.7,489,115.5,489,93.3"/>
	<path class="st0" d="M528.5,36.3h16.1v15.2c6.1-10.7,21.3-15.1,37-13.6v16.9c-18.6-2.5-36.4,7.3-36.4,24.5V150h-16.7V36.3z"/>
	<path class="st0" d="M584.4,93c0-31.2,25.4-56.6,56.8-56.6c31.2,0,56.6,25.4,56.6,56.6s-25.4,56.8-56.6,56.8
		C609.8,149.7,584.4,124.2,584.4,93 M681.2,93c0-22.1-17.9-39.9-39.9-39.9C619,53,601.1,70.9,601.1,93s17.9,40.1,40.2,40.1
		C663.3,133.1,681.2,115,681.2,93"/>
	<path class="st0" d="M711.2,95.2V36.4H728v58.7c0,23,13.8,36.4,35.3,36.4c21.5,0,35.1-13,35.1-36.4v-59h16.7v59
		c0,33-21.3,53.1-51.8,53.1C732.8,148.3,711.2,128.2,711.2,95.2"/>
	<path class="st0" d="M849.8,126.1v59.3h-16.7V93.1c0-31.3,25.7-56.8,57-56.8c31.3,0,56.8,25.5,56.8,56.8s-25.5,57-56.8,57
		C872.5,150.1,857.3,140,849.8,126.1 M849.8,93.1c0,22.1,18.2,40.3,40.3,40.3c22.1,0,40.1-18.2,40.1-40.3
		c0-22.1-17.9-40.1-40.1-40.1C867.9,53,849.8,71,849.8,93.1"/>
</g>
<path class="st1" d="M201.4,149.3c-2.6-0.3-6.8-0.8-11.3-1.6c-6-1.1-12.6-2.6-16.6-4.4l17.4-17.4c4.1,0.8,12.3,1.5,17.3,1.6
	c0.7,0,1.4,0,2,0c9.8-0.3,17-4.4,17.2-10.2c0-1.8-0.7-3.4-2-5c-2.5-2.8-7.3-5.2-13.9-7c-2.9-0.8-6.3-1.5-9.9-2
	c-1.7-0.2-3.4-0.5-4.9-0.8c-6.6-1.3-11.8-2.8-16.6-4.3c-12-3.7-20.8-13.1-20.2-29.4c0.7-18.8,18.8-32.5,45.6-32.5
	c18.2,0,33.5,5.6,41.7,15.8l-16,16c-1.6-1.3-3.5-2.8-5.9-4.1c-2.3-1.3-4.6-2.2-6.6-2.8c0,0,0,0,0,0c-0.8-0.3-1.6-0.5-2.5-0.7
	c-0.9-0.2-1.7-0.3-2.4-0.5c-0.3,0-0.6-0.1-1-0.1c-0.3,0-0.6-0.1-0.9-0.1c-2.3-0.2-4.6-0.3-6.8-0.3c-10,0-16.9,3.8-17.7,9.7
	c-0.5,3.8-2.3,9.2,14.8,13c4.3,1,8.6,1.7,12.6,2.4c4.2,0.7,8.2,1.4,11.5,2.2c1,0.2,2.1,0.5,3.2,0.8c4.8,1.2,10.3,2.8,14.9,6
	c5.5,3.8,9.8,9.9,10.5,20.3C256.5,139.1,228.7,152.1,201.4,149.3"/>
<path class="st1" d="M167.7,131.6c-11.5-5.2-19.1-16.1-19.1-38.6c0-11.1-3.2-21.4-8.7-30.2c-10-15.9-27.8-26.5-48-26.5
	c-31.3,0-56.7,25.4-56.7,56.7c0,20.5,10.9,38.5,27.2,48.4c7.1,4.4,15.3,7.2,24.1,8c1.8,0.2,3.6,0.3,5.4,0.3
	c10.1,0,19.6-2.6,27.7-7.3c5.1-2.9,9.8-6.5,13.8-10.8c4.3,6.9,10.1,12.8,17,17.3c0,0,0,0,0.1,0L167.7,131.6
	C167.7,131.6,167.7,131.6,167.7,131.6 M114.6,117.2c-5.9,5.6-13.9,9-22.8,9c-3.8,0-7.5-0.6-10.9-1.8c-13-4.5-22.3-16.9-22.3-31.4
	c0-18.3,14.9-33.2,33.2-33.2c18.3,0,34,15.1,34,33.4c0,0.9-0.4,6.8-0.4,8.5c-0.1,9.5,1.2,18.7,5.4,25.6
	C126.7,124.9,118.7,120.1,114.6,117.2"/>
<path class="st1" d="M380.2,149.8h-36.5l-34-45.2l-11.3,11.3l0.3,33.9H269v-90c0-10.3-4.3-15.7-8.1-21.2l21.4-21.4
	c10,11.3,16.4,26.6,16.4,42.9v16.8l40.6-40.5h38.6l-48.2,48.2L380.2,149.8z"/>
<g>
	<path class="st0" d="M56.1,186.8h11.4v1.5h-9.7v6.2h9.1v1.5h-9.1v6.9h-1.6V186.8z"/>
	<path class="st0" d="M78.5,189c1.6-1.6,3.5-2.4,5.8-2.4c2.3,0,4.2,0.8,5.8,2.4c1.6,1.6,2.4,3.5,2.4,5.9c0,2.4-0.8,4.3-2.4,5.9
		c-1.6,1.6-3.5,2.4-5.8,2.4c-2.3,0-4.2-0.8-5.8-2.3c-1.6-1.6-2.4-3.5-2.4-5.9C76.1,192.5,76.9,190.6,78.5,189z M79.7,199.7
		c1.3,1.3,2.8,1.9,4.6,1.9c1.8,0,3.4-0.6,4.6-1.9s1.8-2.9,1.8-4.8s-0.6-3.5-1.9-4.8c-1.3-1.3-2.8-1.9-4.6-1.9
		c-1.8,0-3.3,0.6-4.6,1.9c-1.3,1.3-1.9,2.9-1.9,4.8C77.8,196.8,78.4,198.4,79.7,199.7z"/>
	<path class="st0" d="M101.8,202.9v-16.1h6.1c4.1,0,6.1,1.6,6.1,4.7c0,1.2-0.4,2.2-1.2,3c-0.8,0.8-1.8,1.3-3,1.6l5.4,6.9h-2
		l-5.1-6.6h-4.7v6.6H101.8z M103.5,188.3v6.5h4.5c1.3,0,2.4-0.3,3.2-0.9c0.8-0.6,1.2-1.4,1.2-2.4c0-2.1-1.5-3.2-4.5-3.2H103.5z"/>
	<path class="st0" d="M136.2,186.8h13.2v1.5h-5.8v14.6h-1.6v-14.6h-5.8V186.8z"/>
	<path class="st0" d="M158,202.9v-16.1h6.1c4.1,0,6.1,1.6,6.1,4.7c0,1.2-0.4,2.2-1.2,3c-0.8,0.8-1.8,1.3-3,1.6l5.4,6.9h-2l-5.1-6.6
		h-4.7v6.6H158z M159.6,188.3v6.5h4.5c1.3,0,2.4-0.3,3.2-0.9c0.8-0.6,1.2-1.4,1.2-2.4c0-2.1-1.5-3.2-4.5-3.2H159.6z"/>
	<path class="st0" d="M185.3,186.7h1.3l7.1,16.2H192l-2-4.4h-8.3l-1.9,4.4h-1.7L185.3,186.7z M182.4,197h7l-3.5-8.1L182.4,197z"/>
	<path class="st0" d="M214.4,202.9l-10.5-13.2v13.2h-1.6v-16.1h1.3l10.5,13.2v-13.2h1.6v16.1H214.4z"/>
	<path class="st0" d="M234.9,197c-0.5-0.4-1.1-0.8-1.9-1c-0.8-0.2-1.6-0.4-2.5-0.7s-1.7-0.5-2.5-0.8c-0.8-0.3-1.4-0.7-1.9-1.3
		s-0.8-1.4-0.8-2.3c0-1.2,0.5-2.2,1.6-3.1s2.5-1.3,4.3-1.3c2.6,0,4.6,0.7,5.7,2.2l-1,1c-1.2-1.2-2.8-1.7-4.7-1.7
		c-0.4,0-0.9,0-1.4,0.2c-0.5,0.1-0.9,0.2-1.3,0.4c-0.4,0.2-0.8,0.5-1.1,0.9c-0.3,0.4-0.4,0.8-0.4,1.3c0,0.6,0.2,1.1,0.6,1.5
		c0.4,0.4,0.9,0.7,1.5,0.9c0.6,0.2,1.3,0.4,2,0.6c0.7,0.2,1.4,0.4,2.2,0.6c0.7,0.2,1.4,0.5,2,0.8c0.6,0.3,1.1,0.7,1.5,1.3
		c0.4,0.6,0.6,1.2,0.6,2c0,1.3-0.5,2.4-1.6,3.3c-1.1,0.9-2.5,1.3-4.1,1.3c-1.4,0-2.7-0.3-3.8-0.9c-1.2-0.6-2.1-1.3-2.6-2.2l1.1-1.1
		c0.5,0.7,1.3,1.3,2.3,1.9s2.1,0.8,3.3,0.8c1.1,0,2-0.3,2.8-0.8c0.8-0.5,1.2-1.2,1.2-2.1C235.7,198,235.5,197.4,234.9,197z"/>
	<path class="st0" d="M247,186.8h11.4v1.5h-9.7v6.2h9.1v1.5h-9.1v6.9H247V186.8z"/>
	<path class="st0" d="M269.3,189c1.6-1.6,3.5-2.4,5.8-2.4c2.3,0,4.2,0.8,5.8,2.4c1.6,1.6,2.4,3.5,2.4,5.9c0,2.4-0.8,4.3-2.4,5.9
		c-1.6,1.6-3.5,2.4-5.8,2.4c-2.3,0-4.2-0.8-5.8-2.3c-1.6-1.6-2.4-3.5-2.4-5.9C266.9,192.5,267.7,190.6,269.3,189z M270.5,199.7
		c1.3,1.3,2.8,1.9,4.6,1.9c1.8,0,3.4-0.6,4.6-1.9s1.8-2.9,1.8-4.8s-0.6-3.5-1.9-4.8c-1.3-1.3-2.8-1.9-4.6-1.9
		c-1.8,0-3.3,0.6-4.6,1.9c-1.3,1.3-1.9,2.9-1.9,4.8C268.6,196.8,269.2,198.4,270.5,199.7z"/>
	<path class="st0" d="M292.7,202.9v-16.1h6.1c4.1,0,6.1,1.6,6.1,4.7c0,1.2-0.4,2.2-1.2,3c-0.8,0.8-1.8,1.3-3,1.6l5.4,6.9h-2
		l-5.1-6.6h-4.7v6.6H292.7z M294.3,188.3v6.5h4.5c1.3,0,2.4-0.3,3.2-0.9c0.8-0.6,1.2-1.4,1.2-2.4c0-2.1-1.5-3.2-4.5-3.2H294.3z"/>
	<path class="st0" d="M315,186.8h1.6l6.4,8.5l6.2-8.5h1.5v16.1H329v-13.4l-5.9,8.1h-0.4l-6.1-8.1v13.4H315V186.8z"/>
	<path class="st0" d="M346.4,186.7h1.3l7.1,16.2h-1.7l-2-4.4h-8.3l-1.9,4.4h-1.7L346.4,186.7z M343.5,197h7l-3.5-8.1L343.5,197z"/>
	<path class="st0" d="M359.4,186.8h13.2v1.5h-5.8v14.6h-1.6v-14.6h-5.8V186.8z"/>
	<path class="st0" d="M381.4,186.8h1.6v16.1h-1.6V186.8z"/>
	<path class="st0" d="M395.1,189c1.6-1.6,3.5-2.4,5.8-2.4c2.3,0,4.2,0.8,5.8,2.4c1.6,1.6,2.4,3.5,2.4,5.9c0,2.4-0.8,4.3-2.4,5.9
		c-1.6,1.6-3.5,2.4-5.8,2.4c-2.3,0-4.2-0.8-5.8-2.3c-1.6-1.6-2.4-3.5-2.4-5.9C392.7,192.5,393.5,190.6,395.1,189z M396.3,199.7
		c1.3,1.3,2.8,1.9,4.6,1.9c1.8,0,3.4-0.6,4.6-1.9s1.8-2.9,1.8-4.8s-0.6-3.5-1.9-4.8c-1.3-1.3-2.8-1.9-4.6-1.9
		c-1.8,0-3.3,0.6-4.6,1.9c-1.3,1.3-1.9,2.9-1.9,4.8C394.4,196.8,395,198.4,396.3,199.7z"/>
	<path class="st0" d="M430.5,202.9L420,189.7v13.2h-1.6v-16.1h1.3l10.5,13.2v-13.2h1.6v16.1H430.5z"/>
</g>
</svg>
