<?xml version="1.0" encoding="UTF-8"?>
<svg id="Layer_1" data-name="Layer 1" xmlns="http://www.w3.org/2000/svg" viewBox="0 0 683.86 158.45">
  <defs>
    <style>
      .cls-1 {
        fill: #5dbcea;
      }

      .cls-1, .cls-2 {
        stroke-width: 0px;
      }

      .cls-2 {
        fill: #fff;
      }
    </style>
  </defs>
  <g>
    <path class="cls-1" d="M147.62,114.33c-1.5-.18-4.09-.48-6.74-.96-3.61-.66-7.58-1.56-9.92-2.65l10.47-10.47c2.47.48,7.34.9,10.41.96h1.2c5.89-.18,10.23-2.59,10.29-6.14,0-1.08-.36-2.05-1.2-2.95-1.5-1.68-4.39-3.13-8.36-4.21-1.74-.48-3.73-.84-5.95-1.2-1.02-.12-1.98-.3-2.95-.48-3.97-.72-7.04-1.68-9.98-2.59-7.22-2.23-12.51-7.82-12.09-17.62.42-11.31,11.25-19.49,27.31-19.49,10.89,0,20.03,3.37,24.96,9.5l-9.56,9.56c-.96-.78-2.11-1.68-3.55-2.47-1.38-.72-2.77-1.32-3.97-1.68h-.06c-.48-.18-.96-.3-1.5-.42s-1.02-.18-1.44-.3c-.18,0-.36-.06-.54-.06s-.36-.06-.54-.06c-1.38-.12-2.77-.18-4.09-.18-5.95,0-10.17,2.29-10.59,5.77-.3,2.29-1.38,5.47,8.9,7.82,2.59.6,5.17,1.02,7.52,1.44,2.53.42,4.87.84,6.86,1.32.6.12,1.26.3,1.92.48,2.89.72,6.14,1.62,8.96,3.61,3.25,2.29,5.83,5.95,6.32,12.15.96,15.16-15.7,22.98-32.06,21.29Z"/>
    <path class="cls-1" d="M127.41,103.74c-6.92-3.13-11.43-9.68-11.43-23.16,0-6.68-1.92-12.81-5.23-18.04-6.01-9.56-16.66-15.88-28.75-15.88-18.77,0-33.98,15.22-33.98,33.98,0,12.27,6.5,23.04,16.3,28.99,4.27,2.65,9.2,4.33,14.44,4.81,1.08.12,2.17.18,3.25.18,6.01,0,11.73-1.56,16.6-4.33,3.07-1.74,5.83-3.91,8.24-6.5,2.59,4.15,6.08,7.7,10.17,10.41h.06l10.35-10.47h0ZM95.59,95.08c-3.55,3.37-8.36,5.41-13.65,5.41-2.29,0-4.51-.42-6.56-1.08-7.76-2.71-13.35-10.11-13.35-18.77.06-11.07,8.96-19.97,19.91-19.97s20.39,9.02,20.39,20.03c0,.54-.24,4.09-.24,5.11-.06,5.71.72,11.25,3.19,15.34-2.47-1.5-7.22-4.33-9.68-6.08Z"/>
    <path class="cls-1" d="M254.74,114.63h-21.89l-20.39-27.13-6.74,6.8.18,20.33h-17.8v-53.95c0-6.14-2.59-9.44-4.87-12.75l12.81-12.81c6.01,6.74,9.86,15.94,9.86,25.68v10.11l24.36-24.3h23.16l-28.87,28.87,30.19,39.16Z"/>
  </g>
  <g>
    <path class="cls-2" d="M274.12,72.4c0-14.16,9.35-25.41,23.89-25.28,8.34.13,15.3,4.42,18.84,10.62,3.54-6.32,10.49-10.75,18.84-10.62,14.54.13,23.89,11.12,23.77,25.28v42.22h-10.11v-42.22c0-8.34-5.44-15.17-13.65-15.17s-13.78,6.95-13.78,15.17v42.22h-10.24v-42.22c0-8.34-5.44-15.17-13.65-15.17s-13.78,6.95-13.78,15.17v42.22h-10.11v-42.22Z"/>
    <path class="cls-2" d="M372.73,81c0-18.84,12.52-34.89,31.98-34.89,21.11,0,36.28,15.42,31.23,39.44h-52.21c.63,11.12,10.62,21.24,23.64,21.36,5.56,0,17.07-3.03,19.97-8.09l7.96,6.2c-6.57,7.58-17.45,11-29.08,11-20.35,0-33.5-17.83-33.5-35.02ZM426.08,76.7c1.52-8.34-4.05-21.49-21.11-21.49-13.4,0-21.24,11.25-21.24,21.49h42.35Z"/>
    <path class="cls-2" d="M445.63,82.01c0-18.96,15.42-34.39,34.39-34.39,10.62,0,19.85,5.94,24.4,14.54V26.13h10.11v64.22c0,10.49,5.69,13.91,8.72,13.91v10.37c-5.69,0-13.02-2.4-15.42-14.41-5.31,9.86-15.3,16.31-27.81,16.31-18.96,0-34.39-15.55-34.39-34.51ZM504.42,82.01c0-13.4-11-24.27-24.4-24.27s-24.27,10.87-24.27,24.27,10.87,24.4,24.27,24.4,24.4-11,24.4-24.4Z"/>
    <path class="cls-2" d="M534.11,33.59c0-3.41,2.78-6.07,5.94-6.07,3.41,0,6.32,2.65,6.32,6.07,0,3.03-2.91,6.07-6.32,6.07-3.16,0-5.94-3.03-5.94-6.07ZM535.37,48.51h9.48v66.12h-9.48V48.51Z"/>
    <path class="cls-2" d="M558.4,80.49c0-18.71,15.3-34.01,34.13-34.01s34.01,15.3,34.01,34.01v34.13h-10.11v-14.16c-4.42,8.34-13.53,14.16-23.89,14.16-18.84,0-34.13-15.3-34.13-34.13ZM616.43,80.49c0-13.15-10.75-23.89-23.89-23.89s-24.02,10.75-24.02,23.89,10.75,24.02,24.02,24.02,23.89-10.75,23.89-24.02Z"/>
  </g>
</svg>