<?xml version="1.0" encoding="UTF-8"?>
<svg id="Layer_1" data-name="Layer 1" xmlns="http://www.w3.org/2000/svg" viewBox="0 0 966 162.91">
  <defs>
    <style>
      .cls-1 {
        fill: #5dbcea;
      }

      .cls-1, .cls-2 {
        stroke-width: 0px;
      }

      .cls-2 {
        fill: #fff;
      }
    </style>
  </defs>
  <g>
    <path class="cls-1" d="M131.61,109.82c-1.5-.18-4.09-.48-6.74-.96-3.61-.66-7.58-1.56-9.92-2.65l10.47-10.47c2.47.48,7.34.9,10.41.96h1.2c5.89-.18,10.23-2.59,10.29-6.14,0-1.08-.36-2.05-1.2-2.95-1.5-1.68-4.39-3.13-8.36-4.21-1.74-.48-3.73-.84-5.95-1.2-1.02-.12-1.98-.3-2.95-.48-3.97-.72-7.04-1.68-9.98-2.59-7.22-2.23-12.51-7.82-12.09-17.62.42-11.31,11.25-19.49,27.31-19.49,10.89,0,20.03,3.37,24.96,9.5l-9.56,9.56c-.96-.78-2.11-1.68-3.55-2.47-1.38-.72-2.77-1.32-3.97-1.68h-.06c-.48-.18-.96-.3-1.5-.42-.54-.12-1.02-.18-1.44-.3-.18,0-.36-.06-.54-.06s-.36-.06-.54-.06c-1.38-.12-2.77-.18-4.09-.18-5.95,0-10.17,2.29-10.59,5.77-.3,2.29-1.38,5.47,8.9,7.82,2.59.6,5.17,1.02,7.52,1.44,2.53.42,4.87.84,6.86,1.32.6.12,1.26.3,1.92.48,2.89.72,6.14,1.62,8.96,3.61,3.25,2.29,5.83,5.95,6.32,12.15.96,15.16-15.7,22.98-32.06,21.29Z"/>
    <path class="cls-1" d="M111.4,99.24c-6.92-3.13-11.43-9.68-11.43-23.16,0-6.68-1.92-12.81-5.23-18.04-6.01-9.56-16.66-15.88-28.75-15.88-18.77,0-33.98,15.22-33.98,33.98,0,12.27,6.5,23.04,16.3,28.99,4.27,2.65,9.2,4.33,14.44,4.81,1.08.12,2.17.18,3.25.18,6.01,0,11.73-1.56,16.6-4.33,3.07-1.74,5.83-3.91,8.24-6.5,2.59,4.15,6.08,7.7,10.17,10.41h.06l10.35-10.47h0ZM79.58,90.57c-3.55,3.37-8.36,5.41-13.65,5.41-2.29,0-4.51-.42-6.56-1.08-7.76-2.71-13.35-10.11-13.35-18.77.06-11.07,8.96-19.97,19.91-19.97s20.39,9.02,20.39,20.03c0,.54-.24,4.09-.24,5.11-.06,5.71.72,11.25,3.19,15.34-2.47-1.5-7.22-4.33-9.68-6.08Z"/>
    <path class="cls-1" d="M238.74,110.12h-21.89l-20.39-27.13-6.74,6.8.18,20.33h-17.8v-53.95c0-6.14-2.59-9.44-4.87-12.75l12.81-12.81c6.01,6.74,9.86,15.94,9.86,25.68v10.11l24.36-24.3h23.16l-28.87,28.87,30.19,39.16Z"/>
  </g>
  <g>
    <path class="cls-2" d="M261.46,98.62v35.9h-10.11v-55.88c0-18.96,15.55-34.39,34.51-34.39s34.39,15.42,34.39,34.39-15.42,34.51-34.39,34.51c-10.62,0-19.85-6.07-24.4-14.54ZM261.46,78.64c0,13.4,11,24.4,24.4,24.4s24.27-11,24.27-24.4-10.87-24.27-24.27-24.27-24.4,10.87-24.4,24.27Z"/>
    <path class="cls-2" d="M330.36,95.21c20.48,10.87,44.25,12.64,44.37-2.4.13-14.41-47.53-8.47-46.14-33.38,1.26-20.48,32.11-24.53,55.25-8.34l-4.17,7.33c-15.93-12.77-39.95-11.12-40.58,1.52-.89,15.42,46.02,10.37,46.02,32.36,0,18.96-21.74,29.46-58.28,11.63l3.54-8.72Z"/>
    <path class="cls-2" d="M396.34,125.42c13.65,2.91,22.38-14.29,19.47-20.35l-25.54-61.06h10.87l22,52.08,22-52.08h10.87l-27.69,66.12c-6.7,14.16-14.41,27.69-31.98,25.03v-9.73Z"/>
    <path class="cls-2" d="M458.31,77.38c0-21.74,17.32-35.27,34.51-35.27,12.77,0,24.53,7.08,29.2,16.94l-7.46,6.83c-4.3-9.99-14.29-13.65-21.24-13.65-12.01,0-24.9,8.98-24.9,25.16,0,13.78,11.12,25.28,24.9,25.28,9.48,0,18.46-6.07,21.37-13.53l7.46,6.7c-4.8,10.11-16.56,16.94-29.33,16.94-18.84,0-34.51-16.06-34.51-35.4Z"/>
    <path class="cls-2" d="M597.51,75.48v34.64h-10.11v-34.64c0-14.16-8.34-22-21.36-22s-21.24,8.09-21.24,22v34.64h-10.11V21.63h10.11v32.87c3.92-7.46,11.5-11.12,21.24-11.12,18.46,0,31.48,12.14,31.48,32.11Z"/>
    <path class="cls-2" d="M610.32,77.13c0-18.96,15.42-34.39,34.51-34.39s34.39,15.42,34.39,34.39-15.42,34.51-34.39,34.51-34.51-15.55-34.51-34.51ZM669.11,77.13c0-13.4-10.87-24.27-24.27-24.27s-24.4,10.87-24.4,24.27,10.87,24.4,24.4,24.4,24.27-11,24.27-24.4Z"/>
    <path class="cls-2" d="M692.62,85.22V17.84h10.11v67.13c0,8.47,3.16,14.79,10.37,14.79v10.37c-13.15,0-20.48-10.24-20.48-24.9Z"/>
    <path class="cls-2" d="M719.15,77.13c0-18.96,15.42-34.39,34.51-34.39s34.39,15.42,34.39,34.39-15.42,34.51-34.39,34.51-34.51-15.55-34.51-34.51ZM777.93,77.13c0-13.4-10.87-24.27-24.27-24.27s-24.4,10.87-24.4,24.27,10.87,24.4,24.4,24.4,24.27-11,24.27-24.4Z"/>
    <path class="cls-2" d="M865.58,77.51v32.87c0,22.75-15.68,33.63-34.51,33.63v-10.11c12.89,0,24.4-6.57,24.4-23.26v-13.15c-4.42,8.47-13.78,14.54-24.27,14.54-19.09,0-34.51-15.55-34.51-34.51s15.42-34.39,34.51-34.39,34.39,15.42,34.39,34.39ZM855.46,77.51c0-13.4-10.87-24.27-24.27-24.27s-24.4,10.87-24.4,24.27,10.87,24.4,24.4,24.4,24.27-11,24.27-24.4Z"/>
    <path class="cls-2" d="M876.16,125.42c13.65,2.91,22.38-14.29,19.47-20.35l-25.54-61.06h10.87l22,52.08,22-52.08h10.87l-27.69,66.12c-6.7,14.16-14.41,27.69-31.98,25.03v-9.73Z"/>
  </g>
</svg>