<?xml version="1.0" encoding="utf-8"?>
<!-- Generator: Adobe Illustrator 28.3.0, SVG Export Plug-In . SVG Version: 6.00 Build 0)  -->
<svg version="1.1" id="Layer_1" xmlns="http://www.w3.org/2000/svg" xmlns:xlink="http://www.w3.org/1999/xlink" x="0px" y="0px"
	 viewBox="0 0 802.7 183.8" style="enable-background:new 0 0 802.7 183.8;" xml:space="preserve">
<style type="text/css">
	.st0{fill:#5DBCEA;}
	.st1{fill:#FFFFFF;}
</style>
<g>
	<g>
		<path class="st0" d="M135,123.2c-1.5-0.2-4.1-0.5-6.7-1c-3.6-0.7-7.6-1.6-9.9-2.6l10.5-10.5c2.5,0.5,7.3,0.9,10.4,1
			c0.4,0,0.8,0,1.2,0c5.9-0.2,10.2-2.6,10.3-6.1c0-1.1-0.4-2-1.2-2.9c-1.5-1.7-4.4-3.1-8.4-4.2c-1.7-0.5-3.7-0.8-6-1.2
			c-1-0.1-2-0.3-2.9-0.5c-4-0.7-7-1.7-10-2.6c-7.2-2.2-12.5-7.8-12.1-17.6c0.4-11.3,11.2-19.5,27.3-19.5c10.9,0,20,3.4,25,9.5
			l-9.6,9.6c-1-0.8-2.1-1.7-3.5-2.5c-1.4-0.7-2.8-1.3-4-1.7c0,0,0,0-0.1,0c-0.5-0.2-1-0.3-1.5-0.4c-0.5-0.1-1-0.2-1.4-0.3
			c-0.2,0-0.4-0.1-0.5-0.1c-0.2,0-0.4-0.1-0.5-0.1c-1.4-0.1-2.8-0.2-4.1-0.2c-6,0-10.2,2.3-10.6,5.8c-0.3,2.3-1.4,5.5,8.9,7.8
			c2.6,0.6,5.2,1,7.5,1.4c2.5,0.4,4.9,0.8,6.9,1.3c0.6,0.1,1.3,0.3,1.9,0.5c2.9,0.7,6.1,1.6,9,3.6c3.2,2.3,5.8,6,6.3,12.2
			C168,117.1,151.3,124.9,135,123.2z"/>
		<path class="st0" d="M114.8,112.7c-6.9-3.1-11.4-9.7-11.4-23.2c0-6.7-1.9-12.8-5.2-18c-6-9.6-16.7-15.9-28.8-15.9
			c-18.8,0-34,15.2-34,34c0,12.3,6.5,23,16.3,29c4.3,2.6,9.2,4.3,14.4,4.8c1.1,0.1,2.2,0.2,3.2,0.2c6,0,11.7-1.6,16.6-4.3
			c3.1-1.7,5.8-3.9,8.2-6.5c2.6,4.2,6.1,7.7,10.2,10.4h0.1L114.8,112.7L114.8,112.7z M83,104c-3.5,3.4-8.4,5.4-13.7,5.4
			c-2.3,0-4.5-0.4-6.6-1.1c-7.8-2.7-13.4-10.1-13.4-18.8c0.1-11.1,9-20,19.9-20c11,0,20.4,9,20.4,20c0,0.5-0.2,4.1-0.2,5.1
			c-0.1,5.7,0.7,11.2,3.2,15.3C90.2,108.6,85.4,105.7,83,104z"/>
		<path class="st0" d="M242.1,123.5h-21.9l-20.4-27.1l-6.7,6.8l0.2,20.3h-17.8v-54c0-6.1-2.6-9.4-4.9-12.8L183.4,44
			c6,6.7,9.9,15.9,9.9,25.7v10.1l24.4-24.3h23.2l-28.9,28.9L242.1,123.5z"/>
	</g>
	<g>
		<path class="st1" d="M256.5,57.4h9.7v8.2c3.7-6.4,12.9-9.1,22.4-8.2v10.2c-11.3-1.5-22,4.4-22,14.8v41.1h-10.1V57.4z"/>
		<path class="st1" d="M293.6,89.9c0-18.8,12.5-34.9,32-34.9c21.1,0,36.3,15.4,31.2,39.4h-52.2c0.6,11.1,10.6,21.2,23.6,21.4
			c5.6,0,17.1-3,20-8.1l8,6.2c-6.6,7.6-17.4,11-29.1,11C306.7,124.9,293.6,107.1,293.6,89.9z M346.9,85.6c1.5-8.3-4-21.5-21.1-21.5
			c-13.4,0-21.2,11.3-21.2,21.5H346.9z"/>
		<path class="st1" d="M368.9,108.6c20.5,10.9,44.2,12.6,44.4-2.4c0.1-14.4-47.5-8.5-46.1-33.4c1.3-20.5,32.1-24.5,55.2-8.3
			l-4.2,7.3c-15.9-12.8-39.9-11.1-40.6,1.5c-0.9,15.4,46,10.4,46,32.4c0,19-21.7,29.5-58.3,11.6L368.9,108.6z"/>
		<path class="st1" d="M431.1,89.9c0-18.8,12.5-34.9,32-34.9c21.1,0,36.3,15.4,31.2,39.4h-52.2c0.6,11.1,10.6,21.2,23.6,21.4
			c5.6,0,17.1-3,20-8.1l8,6.2c-6.6,7.6-17.4,11-29.1,11C444.2,124.9,431.1,107.1,431.1,89.9z M484.4,85.6c1.5-8.3-4-21.5-21.1-21.5
			c-13.4,0-21.2,11.3-21.2,21.5H484.4z"/>
		<path class="st1" d="M504.3,89.4c0-18.7,15.3-34,34.1-34c18.7,0,34,15.3,34,34v34.1h-10.1v-14.2c-4.4,8.3-13.5,14.2-23.9,14.2
			C519.6,123.5,504.3,108.2,504.3,89.4z M562.4,89.4c0-13.1-10.7-23.9-23.9-23.9c-13.3,0-24,10.7-24,23.9c0,13.3,10.7,24,24,24
			C551.6,113.4,562.4,102.7,562.4,89.4z"/>
		<path class="st1" d="M589.7,57.4h9.7v8.2c3.7-6.4,12.9-9.1,22.4-8.2v10.2c-11.3-1.5-22,4.4-22,14.8v41.1h-10.1V57.4z"/>
		<path class="st1" d="M626.1,90.8c0-21.7,17.3-35.3,34.5-35.3c12.8,0,24.5,7.1,29.2,16.9l-7.5,6.8c-4.3-10-14.3-13.7-21.2-13.7
			c-12,0-24.9,9-24.9,25.2c0,13.8,11.1,25.3,24.9,25.3c9.5,0,18.5-6.1,21.4-13.5l7.5,6.7c-4.8,10.1-16.6,16.9-29.3,16.9
			C641.8,126.2,626.1,110.1,626.1,90.8z"/>
		<path class="st1" d="M765.3,88.9v34.6h-10.1V88.9c0-14.2-8.3-22-21.4-22s-21.2,8.1-21.2,22v34.6h-10.1V35.1h10.1v32.9
			c3.9-7.5,11.5-11.1,21.2-11.1C752.3,56.8,765.3,68.9,765.3,88.9z"/>
	</g>
</g>
</svg>
