<?xml version="1.0" encoding="UTF-8"?>
<svg id="Layer_1" data-name="Layer 1" xmlns="http://www.w3.org/2000/svg" viewBox="0 0 723.07 162.91">
  <defs>
    <style>
      .cls-1 {
        fill: #5dbcea;
      }

      .cls-1, .cls-2 {
        stroke-width: 0px;
      }

      .cls-2 {
        fill: #121425;
      }
    </style>
  </defs>
  <g>
    <path class="cls-1" d="M140.5,109.82c-1.5-.18-4.09-.48-6.74-.96-3.61-.66-7.58-1.56-9.92-2.65l10.47-10.47c2.47.48,7.34.9,10.41.96h1.2c5.89-.18,10.23-2.59,10.29-6.14,0-1.08-.36-2.05-1.2-2.95-1.5-1.68-4.39-3.13-8.36-4.21-1.74-.48-3.73-.84-5.95-1.2-1.02-.12-1.98-.3-2.95-.48-3.97-.72-7.04-1.68-9.98-2.59-7.22-2.23-12.51-7.82-12.09-17.62.42-11.31,11.25-19.49,27.31-19.49,10.89,0,20.03,3.37,24.96,9.5l-9.56,9.56c-.96-.78-2.11-1.68-3.55-2.47-1.38-.72-2.77-1.32-3.97-1.68h-.06c-.48-.18-.96-.3-1.5-.42s-1.02-.18-1.44-.3c-.18,0-.36-.06-.54-.06s-.36-.06-.54-.06c-1.38-.12-2.77-.18-4.09-.18-5.95,0-10.17,2.29-10.59,5.77-.3,2.29-1.38,5.47,8.9,7.82,2.59.6,5.17,1.02,7.52,1.44,2.53.42,4.87.84,6.86,1.32.6.12,1.26.3,1.92.48,2.89.72,6.14,1.62,8.96,3.61,3.25,2.29,5.83,5.95,6.32,12.15.96,15.16-15.7,22.98-32.06,21.29Z"/>
    <path class="cls-1" d="M120.29,99.24c-6.92-3.13-11.43-9.68-11.43-23.16,0-6.68-1.92-12.81-5.23-18.04-6.01-9.56-16.66-15.88-28.75-15.88-18.77,0-33.98,15.22-33.98,33.98,0,12.27,6.5,23.04,16.3,28.99,4.27,2.65,9.2,4.33,14.44,4.81,1.08.12,2.17.18,3.25.18,6.01,0,11.73-1.56,16.6-4.33,3.07-1.74,5.83-3.91,8.24-6.5,2.59,4.15,6.08,7.7,10.17,10.41h.06l10.35-10.47h0ZM88.47,90.57c-3.55,3.37-8.36,5.41-13.65,5.41-2.29,0-4.51-.42-6.56-1.08-7.76-2.71-13.35-10.11-13.35-18.77.06-11.07,8.96-19.97,19.91-19.97s20.39,9.02,20.39,20.03c0,.54-.24,4.09-.24,5.11-.06,5.71.72,11.25,3.19,15.34-2.47-1.5-7.22-4.33-9.68-6.08Z"/>
    <path class="cls-1" d="M247.63,110.12h-21.89l-20.39-27.13-6.74,6.8.18,20.33h-17.8v-53.95c0-6.14-2.59-9.44-4.87-12.75l12.81-12.81c6.01,6.74,9.86,15.94,9.86,25.68v10.11l24.36-24.3h23.16l-28.87,28.87,30.19,39.16Z"/>
  </g>
  <g>
    <path class="cls-2" d="M266.49,85.72v-31.61h-6.07v-10.11h6.07v-13.78h10.11v13.78h16.05v10.11h-16.05v29.2c0,16.18,11.88,17.32,20.99,17.32v10.11c-12.52,0-31.1-3.03-31.1-25.03Z"/>
    <path class="cls-2" d="M308.47,44.01h9.73v8.22c3.67-6.45,12.9-9.1,22.38-8.22v10.24c-11.25-1.52-22,4.42-22,14.79v41.09h-10.11V44.01Z"/>
    <path class="cls-2" d="M345.54,75.99c0-18.71,15.3-34.01,34.13-34.01s34.01,15.3,34.01,34.01v34.13h-10.11v-14.16c-4.42,8.34-13.53,14.16-23.89,14.16-18.84,0-34.13-15.3-34.13-34.13ZM403.56,75.99c0-13.15-10.75-23.89-23.89-23.89s-24.02,10.75-24.02,23.89,10.75,24.02,24.02,24.02,23.89-10.75,23.89-24.02Z"/>
    <path class="cls-2" d="M429.74,75.48c0-19.97,13.02-32.11,31.48-32.11s31.35,12.14,31.35,32.11v34.64h-10.11v-34.64c0-14.29-8.22-22-21.24-22s-21.37,7.96-21.37,22v34.64h-10.11v-34.64Z"/>
    <path class="cls-2" d="M508.2,29.09c0-3.41,2.78-6.07,5.94-6.07,3.41,0,6.32,2.65,6.32,6.07,0,3.03-2.91,6.07-6.32,6.07-3.16,0-5.94-3.03-5.94-6.07ZM509.47,44.01h9.48v66.12h-9.48V44.01Z"/>
    <path class="cls-2" d="M535.89,75.48c0-19.97,13.02-32.11,31.48-32.11s31.35,12.14,31.35,32.11v34.64h-10.11v-34.64c0-14.29-8.22-22-21.24-22s-21.36,7.96-21.36,22v34.64h-10.11v-34.64Z"/>
    <path class="cls-2" d="M679.92,77.51v32.87c0,22.75-15.68,33.63-34.51,33.63v-10.11c12.89,0,24.4-6.57,24.4-23.26v-13.15c-4.42,8.47-13.78,14.54-24.27,14.54-19.09,0-34.51-15.55-34.51-34.51s15.42-34.39,34.51-34.39,34.39,15.42,34.39,34.39ZM669.81,77.51c0-13.4-10.87-24.27-24.27-24.27s-24.4,10.87-24.4,24.27,10.87,24.4,24.4,24.4,24.27-11,24.27-24.4Z"/>
  </g>
</svg>